<?xml version="1.0" encoding="utf-8"?>
<!-- Generator: Adobe Illustrator 19.1.0, SVG Export Plug-In . SVG Version: 6.00 Build 0)  -->
<svg version="1.1" id="Layer_1" xmlns="http://www.w3.org/2000/svg" xmlns:xlink="http://www.w3.org/1999/xlink" x="0px" y="0px"
	 viewBox="0 0 256 256" style="enable-background:new 0 0 256 256;" xml:space="preserve">
<style type="text/css">
	.st0{display:none;stroke:#000000;stroke-miterlimit:10;}
	.st1{fill:#FFFFFF;}
	.st2{clip-path:url(#SVGID_2_);}
</style>
<rect class="st0" width="256" height="256"/>
<rect x="0" y="50.4" class="st1" width="43.9" height="155.1"/>
<polygon class="st1" points="139.8,256 55.9,205.6 55.9,50.4 139.8,0 "/>
<g>
	<defs>
		<polygon id="SVGID_1_" points="256,256 155.6,179.7 155.6,76.3 256,0 		"/>
	</defs>
	<clipPath id="SVGID_2_">
		<use xlink:href="#SVGID_1_"  style="overflow:visible;"/>
	</clipPath>
	<g class="st2">
		<g>
			<path class="st1" d="M128,253C59.1,253,3,196.9,3,128S59.1,3,128,3s125,56.1,125,125S196.9,253,128,253z M128,17
				C66.8,17,17,66.8,17,128s49.8,111,111,111s111-49.8,111-111S189.2,17,128,17z"/>
		</g>
		<g>
			<path class="st1" d="M128,219.2c-50.3,0-91.2-40.9-91.2-91.2S77.7,36.8,128,36.8s91.2,40.9,91.2,91.2S178.3,219.2,128,219.2z
				 M128,50.8c-42.6,0-77.2,34.6-77.2,77.2s34.6,77.2,77.2,77.2s77.2-34.6,77.2-77.2S170.6,50.8,128,50.8z"/>
		</g>
		<g>
			<path class="st1" d="M128,186.7c-32.4,0-58.7-26.3-58.7-58.7c0-32.4,26.3-58.7,58.7-58.7c32.4,0,58.7,26.3,58.7,58.7
				C186.7,160.4,160.4,186.7,128,186.7z M128,83.3c-24.6,0-44.7,20-44.7,44.7c0,24.6,20,44.7,44.7,44.7c24.6,0,44.7-20,44.7-44.7
				C172.7,103.4,152.6,83.3,128,83.3z"/>
		</g>
	</g>
</g>
</svg>
