<?xml version="1.0" encoding="utf-8"?>
<!-- Generator: Adobe Illustrator 19.1.0, SVG Export Plug-In . SVG Version: 6.00 Build 0)  -->
<svg version="1.1" id="Layer_1" xmlns="http://www.w3.org/2000/svg" xmlns:xlink="http://www.w3.org/1999/xlink" x="0px" y="0px"
	 viewBox="-289 381.2 32.6 31.8" style="enable-background:new -289 381.2 32.6 31.8;" xml:space="preserve">
<style type="text/css">
	.st0{display:none;}
	.st1{fill:#FFFFFF;}
	.st2{display:inline;fill:#191717;}
	.st3{display:inline;}
	.st4{fill:none;stroke:#1981BC;stroke-linecap:round;stroke-miterlimit:10;}
	.st5{fill:none;stroke:#1981BC;stroke-linecap:round;stroke-miterlimit:10;stroke-dasharray:0.9999,1.9999;}
	.st6{display:inline;fill:#0072BC;}
	.st7{display:none;fill:#FFFFFF;}
	.st8{display:inline;fill:#FFFFFF;}
</style>
<rect x="-425.3" y="549.8" class="st0" width="531" height="276"/>
<path class="st1" d="M-272.7,381.2c-9,0-16.3,7.3-16.3,16.3c0,7.2,4.7,13.3,11.1,15.5c0.8,0.1,1.1-0.4,1.1-0.8s0-1.4,0-2.8
	c-4.5,1-5.5-2.2-5.5-2.2c-0.7-1.9-1.8-2.4-1.8-2.4c-1.5-1,0.1-1,0.1-1c1.6,0.1,2.5,1.7,2.5,1.7c1.5,2.5,3.8,1.8,4.7,1.4
	c0.1-1.1,0.6-1.8,1-2.2c-3.6-0.4-7.4-1.8-7.4-8.1c0-1.8,0.6-3.2,1.7-4.4c-0.1-0.3-0.7-2,0.2-4.2c0,0,1.4-0.4,4.5,1.7
	c1.3-0.4,2.7-0.5,4.1-0.5c1.4,0,2.8,0.2,4.1,0.5c3.1-2.1,4.5-1.7,4.5-1.7c0.9,2.2,0.3,3.9,0.2,4.3c1,1.1,1.7,2.6,1.7,4.4
	c0,6.3-3.8,7.6-7.4,8c0.6,0.5,1.1,1.5,1.1,3c0,2.2,0,3.9,0,4.5c0,0.4,0.3,0.9,1.1,0.8c6.5-2.2,11.1-8.3,11.1-15.5
	C-256.4,388.5-263.7,381.2-272.7,381.2z"/>
<g class="st0">
	<path class="st2" d="M-74.7,332.2c-33.3,0-60.4,27-60.4,60.4c0,26.7,17.3,49.3,41.3,57.3c3,0.6,4.1-1.3,4.1-2.9
		c0-1.4-0.1-6.2-0.1-11.2c-16.8,3.7-20.3-7.1-20.3-7.1c-2.7-7-6.7-8.8-6.7-8.8c-5.5-3.7,0.4-3.7,0.4-3.7c6.1,0.4,9.3,6.2,9.3,6.2
		c5.4,9.2,14.1,6.6,17.6,5c0.5-3.9,2.1-6.6,3.8-8.1c-13.4-1.5-27.5-6.7-27.5-29.8c0-6.6,2.4-12,6.2-16.2c-0.6-1.5-2.7-7.7,0.6-16
		c0,0,5.1-1.6,16.6,6.2c4.8-1.3,10-2,15.1-2s10.3,0.7,15.1,2c11.5-7.9,16.6-6.3,16.6-6.3c3.3,8.3,1.2,14.5,0.6,16
		c3.9,4.2,6.2,9.6,6.2,16.2c0,23.2-14.1,28.3-27.6,29.8c2.2,1.9,4.1,5.5,4.1,11.2c0,8.1-0.1,14.6-0.1,16.6c0,1.6,1.1,3.5,4.1,2.9
		c24-8,41.3-30.6,41.3-57.3C-14.3,359.2-41.4,332.2-74.7,332.2z"/>
	<path class="st2" d="M-112.2,418.9c-0.1,0.3-0.6,0.4-1,0.2c-0.4-0.2-0.7-0.6-0.5-0.9c0.1-0.3,0.6-0.4,1-0.2
		C-112.3,418.2-112.1,418.6-112.2,418.9L-112.2,418.9z"/>
	<path class="st2" d="M-109.8,421.6c-0.3,0.3-0.9,0.1-1.2-0.3c-0.4-0.4-0.5-1-0.2-1.3c0.3-0.3,0.8-0.1,1.2,0.3
		C-109.6,420.8-109.5,421.4-109.8,421.6L-109.8,421.6z"/>
	<path class="st2" d="M-107.4,425.1c-0.4,0.3-1,0-1.3-0.5c-0.4-0.5-0.4-1.2,0-1.4c0.4-0.3,1,0,1.3,0.5
		C-107,424.2-107,424.8-107.4,425.1L-107.4,425.1z"/>
	<path class="st2" d="M-104.1,428.5c-0.3,0.4-1,0.3-1.6-0.2c-0.5-0.5-0.7-1.2-0.3-1.5c0.3-0.4,1-0.3,1.6,0.2
		C-103.9,427.4-103.8,428.1-104.1,428.5L-104.1,428.5z"/>
	<path class="st2" d="M-99.6,430.4c-0.1,0.5-0.8,0.7-1.5,0.5c-0.7-0.2-1.1-0.8-1-1.2c0.1-0.5,0.8-0.7,1.5-0.5
		C-99.9,429.4-99.5,429.9-99.6,430.4L-99.6,430.4z"/>
	<path class="st2" d="M-94.7,430.8c0,0.5-0.6,0.9-1.3,0.9s-1.3-0.4-1.3-0.9s0.6-0.9,1.3-0.9S-94.7,430.3-94.7,430.8L-94.7,430.8z"/>
	<path class="st2" d="M-90.1,430c0.1,0.5-0.4,1-1.1,1.1c-0.7,0.1-1.3-0.2-1.4-0.7c-0.1-0.5,0.4-1,1.1-1.1
		C-90.8,429.2-90.2,429.5-90.1,430L-90.1,430z"/>
</g>
<g class="st0">
	<g class="st3">
		<line class="st4" x1="-200.4" y1="326.3" x2="-200.4" y2="326.8"/>
		<line class="st5" x1="-200.4" y1="328.8" x2="-200.4" y2="462.8"/>
		<line class="st4" x1="-200.4" y1="463.8" x2="-200.4" y2="464.3"/>
	</g>
</g>
<g class="st0">
	<path class="st6" d="M-292,478.3c-0.4-0.3-0.9-0.4-1.5-0.4c-0.2,0-0.5,0-0.7,0.1c-0.2,0-0.4,0.1-0.6,0.2c-0.2,0.1-0.3,0.3-0.4,0.5
		c-0.1,0.2-0.2,0.4-0.2,0.7c0,0.3,0.1,0.5,0.2,0.6c0.2,0.2,0.4,0.3,0.6,0.4c0.3,0.1,0.6,0.2,0.9,0.3c0.3,0.1,0.7,0.1,1,0.2
		c0.3,0.1,0.7,0.2,1,0.3c0.3,0.1,0.6,0.3,0.9,0.4c0.3,0.2,0.5,0.4,0.6,0.7c0.2,0.3,0.2,0.6,0.2,1.1s-0.1,0.8-0.3,1.2
		c-0.2,0.3-0.5,0.6-0.8,0.8c-0.3,0.2-0.7,0.4-1.1,0.4c-0.4,0.1-0.8,0.1-1.2,0.1c-0.5,0-0.9-0.1-1.4-0.2c-0.4-0.1-0.8-0.3-1.1-0.5
		c-0.3-0.2-0.6-0.6-0.8-0.9c-0.2-0.4-0.3-0.8-0.3-1.3h1.1c0,0.4,0.1,0.7,0.2,0.9c0.1,0.3,0.3,0.5,0.6,0.6c0.2,0.2,0.5,0.3,0.8,0.4
		c0.3,0.1,0.6,0.1,0.9,0.1c0.3,0,0.5,0,0.8-0.1c0.3,0,0.5-0.1,0.7-0.2c0.2-0.1,0.4-0.3,0.5-0.5c0.1-0.2,0.2-0.5,0.2-0.8
		c0-0.3-0.1-0.5-0.2-0.7c-0.2-0.2-0.4-0.3-0.6-0.5c-0.3-0.1-0.6-0.2-0.9-0.3c-0.3-0.1-0.7-0.1-1-0.2c-0.3-0.1-0.7-0.2-1-0.3
		c-0.3-0.1-0.6-0.2-0.9-0.4c-0.3-0.2-0.5-0.4-0.6-0.6c-0.2-0.3-0.2-0.6-0.2-1s0.1-0.8,0.3-1.1c0.2-0.3,0.4-0.6,0.7-0.8
		c0.3-0.2,0.6-0.4,1-0.5s0.8-0.2,1.1-0.2c0.4,0,0.8,0.1,1.2,0.2c0.4,0.1,0.7,0.3,1,0.5c0.3,0.2,0.5,0.5,0.7,0.8
		c0.2,0.3,0.3,0.7,0.3,1.2h-1.1C-291.4,479-291.7,478.5-292,478.3z"/>
	<path class="st6" d="M-287.8,479.5v0.9l0,0c0.5-0.7,1.1-1.1,2-1.1c0.4,0,0.7,0.1,1,0.2c0.3,0.2,0.5,0.4,0.7,0.8
		c0.2-0.3,0.5-0.6,0.8-0.8c0.3-0.2,0.7-0.3,1.1-0.3c0.3,0,0.6,0,0.8,0.1c0.3,0.1,0.5,0.2,0.6,0.3c0.2,0.1,0.3,0.3,0.4,0.6
		c0.3,0.3,0.4,0.6,0.4,0.9v4.5h-1v-4.1c0-0.2,0-0.4,0-0.5c0-0.2-0.1-0.3-0.2-0.4c-0.1-0.1-0.2-0.2-0.4-0.3c-0.2,0-0.4-0.1-0.6-0.1
		c-0.5,0-0.9,0.1-1.2,0.4c-0.3,0.3-0.4,0.7-0.4,1.2v3.9h-1v-4.1c0-0.2,0-0.4-0.1-0.6c0-0.2-0.1-0.3-0.2-0.4s-0.2-0.2-0.4-0.3
		c-0.1-0.1-0.3-0.1-0.6-0.1c-0.3,0-0.5,0.1-0.8,0.2c-0.2,0.1-0.4,0.3-0.5,0.4c-0.1,0.2-0.2,0.3-0.3,0.5c-0.1,0.2-0.1,0.3-0.1,0.5
		v3.9h-1v-6.2H-287.8z"/>
	<path class="st6" d="M-273.7,485.8c-0.3,0-0.5-0.1-0.6-0.2c-0.2-0.1-0.2-0.4-0.2-0.7c-0.3,0.3-0.6,0.6-1,0.7s-0.8,0.2-1.2,0.2
		c-0.3,0-0.5,0-0.8-0.1c-0.2-0.1-0.5-0.2-0.7-0.3c-0.2-0.1-0.3-0.3-0.4-0.5c-0.1-0.2-0.2-0.5-0.2-0.8c0-0.4,0.1-0.6,0.2-0.9
		c0.1-0.2,0.3-0.4,0.5-0.5c0.2-0.1,0.4-0.2,0.7-0.3c0.3-0.1,0.5-0.1,0.8-0.2c0.3-0.1,0.5-0.1,0.8-0.1c0.3,0,0.5-0.1,0.7-0.1
		c0.2-0.1,0.3-0.1,0.5-0.2c0.1-0.1,0.2-0.2,0.2-0.4c0-0.2,0-0.4-0.1-0.5c-0.1-0.1-0.2-0.2-0.3-0.3c-0.1-0.1-0.3-0.1-0.4-0.1
		c-0.2,0-0.3,0-0.5,0c-0.4,0-0.8,0.1-1.1,0.2c-0.3,0.2-0.4,0.5-0.5,0.9h-1c0-0.4,0.1-0.7,0.2-1s0.3-0.5,0.6-0.6
		c0.2-0.2,0.5-0.3,0.8-0.4c0.3-0.1,0.6-0.1,1-0.1c0.3,0,0.6,0,0.8,0.1c0.3,0,0.5,0.1,0.8,0.2c0.2,0.1,0.4,0.3,0.5,0.5
		c0.1,0.2,0.2,0.5,0.2,0.9v3.2c0,0.2,0,0.4,0,0.5s0.1,0.2,0.3,0.2c0.1,0,0.2,0,0.3-0.1v0.8C-273.2,485.7-273.4,485.8-273.7,485.8z
		 M-275.2,482.7c-0.2,0-0.4,0.1-0.7,0.1c-0.2,0-0.5,0.1-0.7,0.1c-0.2,0-0.4,0.1-0.6,0.2c-0.2,0.1-0.3,0.2-0.5,0.3
		c-0.1,0.1-0.2,0.3-0.2,0.6c0,0.2,0,0.3,0.1,0.4c0.1,0.1,0.2,0.2,0.3,0.3s0.2,0.1,0.4,0.2c0.1,0,0.3,0,0.4,0c0.3,0,0.6,0,0.9-0.1
		c0.2-0.1,0.4-0.2,0.6-0.3c0.2-0.1,0.3-0.3,0.3-0.5c0.1-0.2,0.1-0.3,0.1-0.5v-1C-274.8,482.6-274.9,482.6-275.2,482.7z"/>
	<path class="st6" d="M-271,477.1v8.6h-1v-8.6H-271z"/>
	<path class="st6" d="M-268.3,477.1v8.6h-1v-8.6H-268.3z"/>
	<path class="st6" d="M-323.5,494.8v-0.9h1V493c0-0.5,0.1-0.9,0.4-1.1c0.3-0.3,0.7-0.4,1.3-0.4c0.1,0,0.2,0,0.3,0s0.2,0,0.3,0.1v0.9
		c-0.1,0-0.2-0.1-0.3-0.1s-0.2,0-0.3,0c-0.2,0-0.4,0-0.6,0.1c-0.1,0.1-0.2,0.3-0.2,0.6v0.9h1.2v0.9h-1.2v5.3h-1v-5.3h-0.9V494.8z"/>
	<path class="st6" d="M-319.4,495.7c0.1-0.4,0.3-0.7,0.6-1c0.3-0.3,0.6-0.5,0.9-0.7c0.4-0.2,0.8-0.3,1.3-0.3s0.9,0.1,1.3,0.3
		c0.4,0.2,0.7,0.4,0.9,0.7c0.3,0.3,0.4,0.6,0.6,1c0.1,0.4,0.2,0.8,0.2,1.3s-0.1,0.9-0.2,1.3c-0.1,0.4-0.3,0.7-0.6,1
		c-0.3,0.3-0.6,0.5-0.9,0.7c-0.4,0.2-0.8,0.2-1.3,0.2s-0.9-0.1-1.3-0.2c-0.4-0.2-0.7-0.4-0.9-0.7c-0.3-0.3-0.4-0.6-0.6-1
		c-0.1-0.4-0.2-0.8-0.2-1.3S-319.6,496.1-319.4,495.7z M-318.4,498c0.1,0.3,0.2,0.5,0.4,0.7s0.4,0.3,0.6,0.4
		c0.2,0.1,0.5,0.2,0.8,0.2c0.3,0,0.5-0.1,0.8-0.2c0.2-0.1,0.4-0.3,0.6-0.4c0.2-0.2,0.3-0.4,0.4-0.7c0.1-0.3,0.1-0.6,0.1-1
		c0-0.4,0-0.7-0.1-1c-0.1-0.3-0.2-0.5-0.4-0.7c-0.2-0.2-0.4-0.4-0.6-0.5c-0.2-0.1-0.5-0.2-0.8-0.2c-0.3,0-0.5,0.1-0.8,0.2
		c-0.2,0.1-0.4,0.3-0.6,0.5s-0.3,0.4-0.4,0.7c-0.1,0.3-0.1,0.6-0.1,1C-318.5,497.3-318.5,497.7-318.4,498z"/>
	<path class="st6" d="M-311.5,493.9v1.3l0,0c0.2-0.5,0.6-0.9,0.9-1.1c0.4-0.2,0.8-0.4,1.4-0.3v1.1c-0.4,0-0.8,0.1-1,0.2
		c-0.3,0.1-0.5,0.3-0.7,0.5c-0.2,0.2-0.3,0.5-0.4,0.8c-0.1,0.3-0.1,0.7-0.1,1.1v2.8h-1v-6.2h0.9V493.9z"/>
	<path class="st6" d="M-302.6,500.1V494h-2.2v-0.8c0.3,0,0.6,0,0.8-0.1c0.3,0,0.5-0.1,0.7-0.2c0.2-0.1,0.4-0.3,0.6-0.5
		c0.2-0.2,0.3-0.5,0.3-0.8h0.8v8.5H-302.6z"/>
	<path class="st6" d="M-294.6,492.8c-0.2-0.2-0.6-0.3-1-0.3s-0.8,0.1-1,0.3c-0.3,0.2-0.5,0.5-0.6,0.8c-0.1,0.3-0.3,0.7-0.3,1.1
		c-0.1,0.4-0.1,0.7-0.1,1.1l0,0c0.2-0.4,0.5-0.7,0.9-0.9c0.4-0.2,0.8-0.3,1.2-0.3s0.8,0.1,1.1,0.2c0.3,0.1,0.6,0.3,0.8,0.6
		c0.2,0.2,0.4,0.5,0.5,0.9c0.1,0.3,0.2,0.7,0.2,1.1c0,0.3,0,0.6-0.1,1c-0.1,0.3-0.3,0.6-0.5,0.9c-0.2,0.3-0.5,0.5-0.9,0.7
		s-0.8,0.3-1.4,0.3c-0.6,0-1.1-0.1-1.5-0.4c-0.4-0.3-0.7-0.6-0.9-1c-0.2-0.4-0.3-0.8-0.4-1.3s-0.1-0.9-0.1-1.4c0-0.6,0-1.1,0.1-1.7
		c0.1-0.5,0.3-1,0.5-1.5c0.2-0.4,0.6-0.8,1-1c0.4-0.3,0.9-0.4,1.5-0.4c0.7,0,1.3,0.2,1.7,0.6c0.4,0.4,0.7,0.9,0.7,1.6h-1
		C-294.2,493.3-294.4,493-294.6,492.8z M-296.5,495.6c-0.2,0.1-0.4,0.2-0.6,0.4c-0.2,0.2-0.3,0.4-0.3,0.6c-0.1,0.2-0.1,0.5-0.1,0.8
		c0,0.3,0,0.5,0.1,0.7c0.1,0.2,0.2,0.4,0.3,0.6s0.3,0.3,0.6,0.4c0.2,0.1,0.5,0.2,0.8,0.2c0.3,0,0.5,0,0.7-0.2
		c0.2-0.1,0.4-0.2,0.5-0.4s0.3-0.4,0.3-0.6c0.1-0.2,0.1-0.5,0.1-0.7c0-0.3,0-0.5-0.1-0.8c-0.1-0.2-0.2-0.4-0.3-0.6
		c-0.1-0.2-0.3-0.3-0.5-0.4s-0.5-0.2-0.8-0.2C-296,495.5-296.3,495.5-296.5,495.6z"/>
	<path class="st6" d="M-290.7,493.9v0.8l0,0c0.2-0.3,0.4-0.6,0.8-0.8c0.4-0.2,0.8-0.2,1.2-0.2c0.5,0,0.9,0.1,1.3,0.3
		c0.4,0.2,0.7,0.4,0.9,0.7s0.4,0.6,0.5,1s0.2,0.8,0.2,1.2c0,0.4-0.1,0.9-0.2,1.2c-0.1,0.4-0.3,0.7-0.5,1s-0.5,0.5-0.9,0.7
		c-0.4,0.2-0.8,0.3-1.2,0.3c-0.2,0-0.3,0-0.5,0c-0.2,0-0.4-0.1-0.6-0.2c-0.2-0.1-0.4-0.2-0.5-0.3c-0.2-0.1-0.3-0.3-0.4-0.5l0,0v3.2
		h-1v-8.6h0.9V493.9z M-287,496.1c-0.1-0.3-0.2-0.5-0.3-0.7c-0.2-0.2-0.4-0.4-0.6-0.5c-0.2-0.1-0.5-0.2-0.9-0.2
		c-0.3,0-0.6,0.1-0.9,0.2c-0.2,0.1-0.4,0.3-0.6,0.5c-0.2,0.2-0.3,0.5-0.3,0.8c-0.1,0.3-0.1,0.6-0.1,0.9c0,0.3,0,0.6,0.1,0.9
		c0.1,0.3,0.2,0.5,0.3,0.8c0.2,0.2,0.4,0.4,0.6,0.5c0.2,0.1,0.5,0.2,0.9,0.2c0.4,0,0.6-0.1,0.9-0.2c0.2-0.1,0.4-0.3,0.6-0.5
		c0.1-0.2,0.2-0.5,0.3-0.8c0.1-0.3,0.1-0.6,0.1-0.9C-286.9,496.6-286.9,496.3-287,496.1z"/>
	<path class="st6" d="M-285.1,493.9h1.3l1.5,2.2l1.5-2.2h1.2l-2.1,2.9l2.4,3.3h-1.3l-1.7-2.6l-1.7,2.6h-1.3l2.3-3.3L-285.1,493.9z"
		/>
	<path class="st6" d="M-275.1,496.2v1h-3.5v-1H-275.1z"/>
	<path class="st6" d="M-271.2,500.1V494h-2.2v-0.8c0.3,0,0.6,0,0.8-0.1c0.3,0,0.5-0.1,0.7-0.2c0.2-0.1,0.4-0.3,0.6-0.5
		c0.2-0.2,0.3-0.5,0.3-0.8h0.8v8.5H-271.2z"/>
	<path class="st6" d="M-267.2,493.4c0.1-0.4,0.3-0.7,0.5-1c0.2-0.3,0.5-0.5,0.9-0.6c0.4-0.2,0.8-0.2,1.2-0.2s0.7,0.1,1,0.2
		c0.3,0.1,0.6,0.3,0.8,0.5c0.2,0.2,0.4,0.5,0.6,0.8c0.1,0.3,0.2,0.7,0.2,1.1s-0.1,0.7-0.2,1c-0.1,0.3-0.3,0.5-0.5,0.8
		c-0.2,0.2-0.4,0.4-0.7,0.6c-0.2,0.2-0.5,0.4-0.8,0.5c-0.3,0.2-0.5,0.3-0.8,0.5c-0.3,0.2-0.5,0.3-0.7,0.5c-0.2,0.2-0.4,0.4-0.6,0.6
		c-0.2,0.2-0.3,0.4-0.3,0.7h4.6v0.9h-5.6c0-0.5,0.1-0.9,0.3-1.3c0.1-0.4,0.3-0.7,0.5-0.9c0.2-0.3,0.5-0.5,0.7-0.7
		c0.3-0.2,0.6-0.4,0.9-0.6c0.4-0.2,0.7-0.4,0.9-0.6c0.3-0.2,0.5-0.4,0.7-0.6c0.2-0.2,0.3-0.4,0.4-0.6c0.1-0.2,0.1-0.5,0.1-0.8
		c0-0.2,0-0.4-0.1-0.6c-0.1-0.2-0.2-0.3-0.4-0.5c-0.1-0.1-0.3-0.2-0.5-0.3c-0.2-0.1-0.4-0.1-0.6-0.1c-0.3,0-0.6,0.1-0.8,0.2
		c-0.2,0.1-0.4,0.3-0.5,0.5c-0.1,0.2-0.2,0.4-0.3,0.7c-0.1,0.3-0.1,0.5-0.1,0.8h-1C-267.3,494.1-267.3,493.7-267.2,493.4z"/>
	<path class="st6" d="M-260.6,494.9c0-0.3,0.1-0.7,0.1-1c0.1-0.3,0.2-0.6,0.3-0.9c0.1-0.3,0.3-0.5,0.5-0.8c0.2-0.2,0.5-0.4,0.8-0.5
		c0.3-0.1,0.7-0.2,1.1-0.2c0.4,0,0.8,0.1,1.1,0.2c0.3,0.1,0.6,0.3,0.8,0.5c0.2,0.2,0.4,0.5,0.5,0.8c0.1,0.3,0.2,0.6,0.3,0.9
		c0.1,0.3,0.1,0.6,0.1,1c0,0.3,0,0.7,0,1c0,0.3,0,0.6,0,1c0,0.3-0.1,0.7-0.1,1c-0.1,0.3-0.2,0.6-0.3,0.9c-0.1,0.3-0.3,0.5-0.5,0.8
		c-0.2,0.2-0.5,0.4-0.8,0.5c-0.3,0.1-0.7,0.2-1.1,0.2c-0.4,0-0.8-0.1-1.1-0.2c-0.3-0.1-0.6-0.3-0.8-0.5c-0.2-0.2-0.4-0.5-0.5-0.8
		c-0.1-0.3-0.2-0.6-0.3-0.9c-0.1-0.3-0.1-0.6-0.1-1c0-0.4,0-0.7,0-1C-260.6,495.6-260.6,495.3-260.6,494.9z M-259.5,497
		c0,0.4,0.1,0.8,0.2,1.1c0.1,0.3,0.3,0.6,0.5,0.9c0.2,0.2,0.6,0.4,1,0.4c0.4,0,0.8-0.1,1-0.4c0.2-0.2,0.4-0.5,0.5-0.9
		c0.1-0.3,0.2-0.7,0.2-1.1c0-0.4,0-0.8,0-1.1c0-0.2,0-0.4,0-0.7s0-0.5-0.1-0.8c0-0.3-0.1-0.5-0.2-0.7c-0.1-0.2-0.2-0.5-0.3-0.6
		c-0.1-0.2-0.3-0.3-0.5-0.4c-0.2-0.1-0.4-0.2-0.7-0.2c-0.3,0-0.5,0.1-0.7,0.2c-0.2,0.1-0.4,0.3-0.5,0.4c-0.1,0.2-0.2,0.4-0.3,0.6
		c-0.1,0.2-0.1,0.5-0.2,0.7c0,0.3-0.1,0.5-0.1,0.8c0,0.3,0,0.5,0,0.7C-259.6,496.2-259.6,496.6-259.5,497z"/>
	<path class="st6" d="M-252.7,493.9v0.8l0,0c0.2-0.3,0.4-0.6,0.8-0.8c0.4-0.2,0.8-0.2,1.2-0.2c0.5,0,0.9,0.1,1.3,0.3
		c0.4,0.2,0.7,0.4,0.9,0.7s0.4,0.6,0.5,1s0.2,0.8,0.2,1.2c0,0.4-0.1,0.9-0.2,1.2c-0.1,0.4-0.3,0.7-0.5,1s-0.5,0.5-0.9,0.7
		c-0.4,0.2-0.8,0.3-1.2,0.3c-0.2,0-0.3,0-0.5,0c-0.2,0-0.4-0.1-0.6-0.2c-0.2-0.1-0.4-0.2-0.5-0.3c-0.2-0.1-0.3-0.3-0.4-0.5l0,0v3.2
		h-1v-8.6h0.9V493.9z M-249,496.1c-0.1-0.3-0.2-0.5-0.3-0.7c-0.2-0.2-0.4-0.4-0.6-0.5c-0.2-0.1-0.5-0.2-0.9-0.2
		c-0.3,0-0.6,0.1-0.9,0.2c-0.2,0.1-0.4,0.3-0.6,0.5c-0.2,0.2-0.3,0.5-0.3,0.8c-0.1,0.3-0.1,0.6-0.1,0.9c0,0.3,0,0.6,0.1,0.9
		c0.1,0.3,0.2,0.5,0.3,0.8c0.2,0.2,0.4,0.4,0.6,0.5s0.5,0.2,0.9,0.2c0.4,0,0.6-0.1,0.9-0.2c0.2-0.1,0.4-0.3,0.6-0.5
		c0.1-0.2,0.2-0.5,0.3-0.8c0.1-0.3,0.1-0.6,0.1-0.9C-248.9,496.6-248.9,496.3-249,496.1z"/>
	<path class="st6" d="M-247.1,493.9h1.3l1.5,2.2l1.5-2.2h1.2l-2.1,2.9l2.4,3.3h-1.3l-1.7-2.6l-1.7,2.6h-1.2l2.3-3.3L-247.1,493.9z"
		/>
</g>
<g class="st0">
	<path class="st6" d="M-89.7,477.1v7.6h4.5v1h-5.7v-8.6H-89.7z"/>
	<path class="st6" d="M-79.6,485.8c-0.3,0-0.5-0.1-0.6-0.2c-0.2-0.1-0.2-0.4-0.2-0.7c-0.3,0.3-0.6,0.6-1,0.7s-0.8,0.2-1.2,0.2
		c-0.3,0-0.5,0-0.8-0.1c-0.2-0.1-0.5-0.2-0.7-0.3c-0.2-0.1-0.3-0.3-0.4-0.5c-0.1-0.2-0.2-0.5-0.2-0.8c0-0.4,0.1-0.6,0.2-0.9
		c0.1-0.2,0.3-0.4,0.5-0.5c0.2-0.1,0.4-0.2,0.7-0.3s0.5-0.1,0.8-0.2c0.3-0.1,0.5-0.1,0.8-0.1s0.5-0.1,0.7-0.1
		c0.2-0.1,0.3-0.1,0.5-0.2c0.1-0.1,0.2-0.2,0.2-0.4c0-0.2,0-0.4-0.1-0.5c-0.1-0.1-0.2-0.2-0.3-0.3s-0.3-0.1-0.4-0.1
		c-0.2,0-0.3,0-0.5,0c-0.4,0-0.8,0.1-1.1,0.2c-0.3,0.2-0.4,0.5-0.5,0.9h-1c0-0.4,0.1-0.7,0.2-1c0.1-0.3,0.3-0.5,0.6-0.6
		c0.2-0.2,0.5-0.3,0.8-0.4s0.6-0.1,1-0.1c0.3,0,0.6,0,0.8,0.1c0.3,0,0.5,0.1,0.8,0.2c0.2,0.1,0.4,0.3,0.5,0.5
		c0.1,0.2,0.2,0.5,0.2,0.9v3.2c0,0.2,0,0.4,0,0.5s0.1,0.2,0.3,0.2c0.1,0,0.2,0,0.3-0.1v0.8C-79,485.7-79.2,485.8-79.6,485.8z
		 M-81,482.7c-0.2,0-0.4,0.1-0.7,0.1c-0.2,0-0.5,0.1-0.7,0.1s-0.4,0.1-0.6,0.2c-0.2,0.1-0.3,0.2-0.4,0.3c-0.1,0.1-0.2,0.4-0.2,0.6
		c0,0.2,0,0.3,0.1,0.4c0.1,0.1,0.2,0.2,0.3,0.3s0.2,0.1,0.4,0.2c0.1,0,0.3,0,0.4,0c0.3,0,0.6,0,0.9-0.1c0.2-0.1,0.4-0.2,0.6-0.3
		c0.2-0.1,0.3-0.3,0.3-0.5c0.1-0.2,0.1-0.3,0.1-0.5v-1C-80.6,482.6-80.8,482.6-81,482.7z"/>
	<path class="st6" d="M-77,479.5v1.3l0,0c0.2-0.5,0.6-0.9,0.9-1.1c0.4-0.2,0.8-0.4,1.4-0.3v1.1c-0.4,0-0.8,0.1-1,0.2
		c-0.3,0.1-0.5,0.3-0.7,0.5s-0.3,0.5-0.4,0.8c-0.1,0.3-0.1,0.7-0.1,1.1v2.8h-1v-6.2h0.9V479.5z"/>
	<path class="st6" d="M-69.6,487.4c-0.5,0.5-1.2,0.8-2.2,0.8c-0.3,0-0.6,0-0.9-0.1c-0.3-0.1-0.6-0.2-0.8-0.3s-0.4-0.3-0.6-0.6
		c-0.2-0.2-0.2-0.5-0.3-0.9h1c0,0.2,0.1,0.3,0.2,0.5c0.1,0.1,0.2,0.2,0.4,0.3s0.3,0.1,0.5,0.2c0.2,0,0.4,0.1,0.5,0.1
		c0.3,0,0.6-0.1,0.9-0.2c0.2-0.1,0.4-0.3,0.6-0.5c0.2-0.2,0.3-0.4,0.3-0.7c0.1-0.3,0.1-0.6,0.1-0.9v-0.4l0,0
		c-0.2,0.4-0.4,0.7-0.8,0.8c-0.4,0.2-0.7,0.3-1.1,0.3c-0.5,0-0.9-0.1-1.2-0.3c-0.3-0.2-0.6-0.4-0.9-0.7c-0.2-0.3-0.4-0.6-0.5-1
		s-0.2-0.8-0.2-1.2c0-0.4,0-0.7,0.1-1.1s0.3-0.7,0.5-1.1c0.2-0.3,0.5-0.6,0.9-0.8c0.4-0.2,0.8-0.3,1.4-0.3c0.4,0,0.8,0.1,1.1,0.3
		c0.3,0.2,0.6,0.4,0.8,0.8l0,0v-0.9h1v5.7C-68.9,486.2-69.1,486.9-69.6,487.4z M-70.9,484.6c0.2-0.1,0.4-0.3,0.6-0.6
		c0.1-0.2,0.3-0.5,0.3-0.8c0.1-0.3,0.1-0.6,0.1-0.9c0-0.3,0-0.5-0.1-0.8c-0.1-0.3-0.2-0.5-0.3-0.7c-0.1-0.2-0.3-0.4-0.5-0.5
		s-0.5-0.2-0.8-0.2s-0.6,0.1-0.8,0.2s-0.4,0.3-0.6,0.5c-0.1,0.2-0.3,0.4-0.3,0.7c-0.1,0.3-0.1,0.6-0.1,0.9c0,0.3,0,0.6,0.1,0.8
		c0.1,0.3,0.2,0.5,0.3,0.8c0.1,0.2,0.3,0.4,0.5,0.6c0.2,0.1,0.5,0.2,0.8,0.2S-71.1,484.8-70.9,484.6z"/>
	<path class="st6" d="M-62.9,485.3c-0.5,0.4-1,0.5-1.8,0.5c-0.5,0-0.9-0.1-1.3-0.2c-0.4-0.2-0.7-0.4-0.9-0.7c-0.2-0.3-0.4-0.6-0.6-1
		c-0.1-0.4-0.2-0.8-0.2-1.3s0.1-0.9,0.2-1.3c0.1-0.4,0.3-0.7,0.6-1c0.3-0.3,0.6-0.5,0.9-0.7c0.4-0.2,0.7-0.2,1.2-0.2
		c0.6,0,1,0.1,1.4,0.3s0.7,0.5,0.9,0.9c0.2,0.4,0.4,0.7,0.5,1.2c0.1,0.4,0.1,0.8,0.1,1.2h-4.6c0,0.3,0,0.5,0.1,0.8
		c0.1,0.2,0.2,0.5,0.3,0.6c0.2,0.2,0.4,0.3,0.6,0.5c0.2,0.1,0.5,0.2,0.9,0.2s0.8-0.1,1.1-0.3c0.3-0.2,0.5-0.5,0.5-0.9h1
		C-62.2,484.4-62.5,484.9-62.9,485.3z M-63.2,481.3c-0.1-0.2-0.2-0.4-0.4-0.6s-0.3-0.3-0.6-0.4c-0.2-0.1-0.4-0.1-0.7-0.1
		s-0.5,0-0.7,0.1s-0.4,0.2-0.5,0.4c-0.2,0.2-0.3,0.3-0.4,0.6c-0.1,0.2-0.1,0.4-0.2,0.7h3.6C-63,481.7-63.1,481.5-63.2,481.3z"/>
	<path class="st6" d="M-60,479.5v1.3l0,0c0.2-0.5,0.6-0.9,0.9-1.1c0.4-0.2,0.8-0.4,1.4-0.3v1.1c-0.4,0-0.8,0.1-1,0.2
		c-0.3,0.1-0.5,0.3-0.7,0.5s-0.3,0.5-0.4,0.8c-0.1,0.3-0.1,0.7-0.1,1.1v2.8h-1v-6.2h0.9V479.5z"/>
	<path class="st6" d="M-107.1,494.8v-0.9h1V493c0-0.5,0.1-0.9,0.4-1.1c0.3-0.3,0.7-0.4,1.3-0.4c0.1,0,0.2,0,0.3,0s0.2,0,0.3,0.1v0.9
		c-0.1,0-0.2-0.1-0.3-0.1s-0.2,0-0.3,0c-0.2,0-0.4,0-0.6,0.1c-0.1,0.1-0.2,0.3-0.2,0.6v0.9h1.2v0.9h-1v5.3h-1v-5.3h-1.1V494.8z"/>
	<path class="st6" d="M-103,495.7c0.1-0.4,0.3-0.7,0.6-1s0.6-0.5,0.9-0.7c0.4-0.2,0.8-0.3,1.3-0.3s0.9,0.1,1.3,0.3
		c0.4,0.2,0.7,0.4,0.9,0.7c0.3,0.3,0.4,0.6,0.6,1c0.1,0.4,0.2,0.8,0.2,1.3s-0.1,0.9-0.2,1.3c-0.1,0.4-0.3,0.7-0.6,1
		s-0.6,0.5-0.9,0.7c-0.4,0.2-0.8,0.2-1.3,0.2s-0.9-0.1-1.3-0.2c-0.4-0.2-0.7-0.4-0.9-0.7c-0.3-0.3-0.4-0.6-0.6-1
		c-0.1-0.4-0.2-0.8-0.2-1.3S-103.2,496.1-103,495.7z M-102,498c0.1,0.3,0.2,0.5,0.4,0.7s0.4,0.3,0.6,0.5c0.2,0.1,0.5,0.2,0.8,0.2
		s0.5-0.1,0.8-0.2c0.2-0.1,0.4-0.3,0.6-0.5c0.2-0.2,0.3-0.4,0.4-0.7c0.1-0.3,0.1-0.6,0.1-1c0-0.4,0-0.7-0.1-1
		c-0.1-0.3-0.2-0.5-0.4-0.7s-0.4-0.4-0.6-0.5c-0.2-0.1-0.5-0.2-0.8-0.2s-0.5,0.1-0.8,0.2c-0.2,0.1-0.4,0.3-0.6,0.5
		c-0.2,0.2-0.3,0.4-0.4,0.7c-0.1,0.3-0.2,0.6-0.2,1C-102.1,497.3-102.1,497.7-102,498z"/>
	<path class="st6" d="M-95.1,493.9v1.3l0,0c0.2-0.5,0.6-0.9,0.9-1.1c0.4-0.2,0.8-0.4,1.4-0.3v1.1c-0.4,0-0.8,0.1-1,0.2
		c-0.3,0.1-0.5,0.3-0.7,0.5s-0.3,0.5-0.4,0.8c-0.1,0.3-0.1,0.7-0.1,1.1v2.8h-1v-6.2h0.9V493.9z"/>
	<path class="st6" d="M-86.2,500.1V494h-2.2v-0.8c0.3,0,0.6,0,0.8-0.1c0.3,0,0.5-0.1,0.7-0.2c0.2-0.1,0.4-0.3,0.6-0.5
		c0.2-0.2,0.3-0.5,0.3-0.8h0.8v8.5H-86.2z"/>
	<path class="st6" d="M-82.1,493.4c0.1-0.4,0.3-0.7,0.5-1c0.2-0.3,0.5-0.5,0.9-0.6c0.4-0.2,0.8-0.2,1.2-0.2s0.7,0.1,1,0.2
		s0.6,0.3,0.8,0.5c0.2,0.2,0.4,0.5,0.6,0.8c0.1,0.3,0.2,0.7,0.2,1.1s-0.1,0.7-0.2,1c-0.1,0.3-0.3,0.5-0.5,0.8
		c-0.2,0.2-0.4,0.4-0.7,0.6c-0.2,0.2-0.5,0.4-0.8,0.5c-0.3,0.2-0.5,0.3-0.8,0.5c-0.3,0.2-0.5,0.3-0.7,0.5c-0.2,0.2-0.4,0.4-0.6,0.6
		c-0.2,0.2-0.3,0.4-0.3,0.7h4.4v0.9h-5.6c0-0.5,0.1-0.9,0.3-1.3c0.1-0.4,0.3-0.7,0.5-0.9c0.2-0.3,0.5-0.5,0.7-0.7
		c0.3-0.2,0.6-0.4,0.9-0.6c0.4-0.2,0.7-0.4,0.9-0.6c0.3-0.2,0.5-0.4,0.7-0.6c0.2-0.2,0.3-0.4,0.4-0.6c0.1-0.2,0.1-0.5,0.1-0.8
		c0-0.2,0-0.4-0.1-0.6c-0.1-0.2-0.2-0.3-0.4-0.5c-0.1-0.1-0.3-0.2-0.5-0.3s-0.4-0.1-0.6-0.1c-0.3,0-0.6,0.1-0.8,0.2
		c-0.2,0.1-0.4,0.3-0.5,0.5c-0.1,0.2-0.2,0.4-0.3,0.7c-0.1,0.3-0.1,0.5-0.1,0.8h-1C-82.3,494.1-82.2,493.7-82.1,493.4z"/>
	<path class="st6" d="M-75.6,494.9c0-0.3,0.1-0.7,0.1-1c0.1-0.3,0.2-0.6,0.3-0.9c0.1-0.3,0.3-0.5,0.5-0.8c0.2-0.2,0.5-0.4,0.8-0.5
		c0.3-0.1,0.7-0.2,1.1-0.2c0.4,0,0.8,0.1,1.1,0.2c0.3,0.1,0.6,0.3,0.8,0.5c0.2,0.2,0.4,0.5,0.5,0.8c0.1,0.3,0.2,0.6,0.3,0.9
		c0.1,0.3,0.1,0.6,0.1,1c0,0.3,0,0.7,0,1c0,0.3,0,0.6,0,1c0,0.3-0.1,0.7-0.1,1c-0.1,0.3-0.2,0.6-0.3,0.9c-0.1,0.3-0.3,0.5-0.5,0.8
		c-0.2,0.2-0.5,0.4-0.8,0.5s-0.7,0.2-1.1,0.2c-0.4,0-0.8-0.1-1.1-0.2s-0.6-0.3-0.8-0.5c-0.2-0.2-0.4-0.5-0.5-0.8
		c-0.1-0.3-0.2-0.6-0.3-0.9c-0.1-0.3-0.1-0.6-0.1-1c0-0.3,0-0.7,0-1C-75.6,495.6-75.6,495.3-75.6,494.9z M-74.5,496.9
		c0,0.4,0.1,0.8,0.2,1.1c0.1,0.3,0.3,0.6,0.5,0.9c0.2,0.2,0.6,0.4,1,0.4s0.8-0.1,1-0.4c0.2-0.2,0.4-0.5,0.5-0.9
		c0.1-0.3,0.2-0.7,0.2-1.1c0-0.4,0-0.8,0-1.1c0-0.2,0-0.4,0-0.7c0-0.3,0-0.5-0.1-0.8c0-0.3-0.1-0.5-0.2-0.7
		c-0.1-0.2-0.2-0.4-0.3-0.6c-0.1-0.2-0.3-0.3-0.5-0.4s-0.4-0.2-0.7-0.2s-0.5,0.1-0.7,0.2s-0.4,0.3-0.5,0.4c-0.1,0.2-0.2,0.4-0.3,0.6
		c-0.1,0.2-0.1,0.5-0.2,0.7c0,0.3-0.1,0.5-0.1,0.8c0,0.3,0,0.5,0,0.7C-74.5,496.2-74.5,496.6-74.5,496.9z"/>
	<path class="st6" d="M-67.6,493.9v0.8l0,0c0.2-0.3,0.4-0.6,0.8-0.8c0.4-0.2,0.8-0.2,1.2-0.2c0.5,0,0.9,0.1,1.3,0.3
		c0.4,0.2,0.7,0.4,0.9,0.7s0.4,0.6,0.5,1s0.2,0.8,0.2,1.2c0,0.4-0.1,0.9-0.2,1.2c-0.1,0.4-0.3,0.7-0.5,1s-0.5,0.5-0.9,0.7
		c-0.4,0.2-0.8,0.3-1.2,0.3c-0.2,0-0.3,0-0.5,0s-0.4-0.1-0.6-0.2c-0.2-0.1-0.4-0.2-0.5-0.3c-0.2-0.1-0.3-0.3-0.4-0.5l0,0v3.2h-1
		v-8.6h0.9V493.9z M-63.9,496.1c-0.1-0.3-0.2-0.5-0.3-0.7c-0.2-0.2-0.4-0.4-0.6-0.5c-0.2-0.1-0.5-0.2-0.9-0.2
		c-0.3,0-0.6,0.1-0.9,0.2c-0.2,0.1-0.4,0.3-0.6,0.5c-0.2,0.2-0.3,0.5-0.3,0.8c-0.1,0.3-0.1,0.6-0.1,0.9c0,0.3,0,0.6,0.1,0.9
		c0.1,0.3,0.2,0.5,0.3,0.8c0.2,0.2,0.4,0.4,0.6,0.5c0.2,0.1,0.5,0.2,0.9,0.2s0.6-0.1,0.9-0.2c0.2-0.1,0.4-0.3,0.6-0.5
		c0.1-0.2,0.2-0.5,0.3-0.8c0.1-0.3,0.1-0.6,0.1-0.9C-63.8,496.6-63.9,496.3-63.9,496.1z"/>
	<path class="st6" d="M-62,493.9h1.3l1.5,2.2l1.5-2.2h1.2l-2.1,2.9l2.4,3.3h-1.3l-1.7-2.6l-1.7,2.6h-1.2l2.3-3.3L-62,493.9z"/>
	<path class="st6" d="M-46.1,496.6v0.8h-2.6v2.6h-0.8v-2.6h-2.6v-0.8h2.6V494h0.8v2.6H-46.1z"/>
</g>
<path class="st7" d="M-272.7,657.2c-9,0-16.3,7.3-16.3,16.3c0,7.2,4.7,13.3,11.1,15.5c0.8,0.1,1.1-0.4,1.1-0.8s0-1.4,0-2.8
	c-4.5,1-5.5-2.2-5.5-2.2c-0.7-1.9-1.8-2.4-1.8-2.4c-1.5-1,0.1-1,0.1-1c1.6,0.1,2.5,1.7,2.5,1.7c1.5,2.5,3.8,1.8,4.7,1.4
	c0.1-1.1,0.6-1.8,1-2.2c-3.6-0.4-7.4-1.8-7.4-8.1c0-1.8,0.6-3.2,1.7-4.4c-0.2-0.4-0.7-2.1,0.2-4.3c0,0,1.4-0.4,4.5,1.7
	c1.3-0.4,2.7-0.5,4.1-0.5c1.4,0,2.8,0.2,4.1,0.5c3.1-2.1,4.5-1.7,4.5-1.7c0.9,2.2,0.3,3.9,0.2,4.3c1,1.1,1.7,2.6,1.7,4.4
	c0,6.3-3.8,7.6-7.4,8c0.6,0.5,1.1,1.5,1.1,3c0,2.2,0,3.9,0,4.5c0,0.4,0.3,0.9,1.1,0.8c6.5-2.2,11.1-8.3,11.1-15.5
	C-256.4,664.5-263.7,657.2-272.7,657.2z"/>
<g class="st0">
	<path class="st8" d="M-74.7,608.2c-33.3,0-60.4,27-60.4,60.4c0,26.7,17.3,49.3,41.3,57.3c3,0.6,4.1-1.3,4.1-2.9
		c0-1.4-0.1-6.2-0.1-11.2c-16.8,3.7-20.3-7.1-20.3-7.1c-2.7-7-6.7-8.8-6.7-8.8c-5.5-3.7,0.4-3.7,0.4-3.7c6.1,0.4,9.3,6.2,9.3,6.2
		c5.4,9.2,14.1,6.6,17.6,5c0.5-3.9,2.1-6.6,3.8-8.1c-13.4-1.5-27.5-6.7-27.5-29.8c0-6.6,2.4-12,6.2-16.2c-0.6-1.5-2.7-7.7,0.6-16
		c0,0,5.1-1.6,16.6,6.2c4.8-1.3,10-2,15.1-2s10.3,0.7,15.1,2c11.5-7.8,16.6-6.2,16.6-6.2c3.3,8.3,1.2,14.5,0.6,16
		c3.9,4.2,6.2,9.6,6.2,16.2c0,23.2-14.1,28.3-27.6,29.8c2.2,1.9,4.1,5.5,4.1,11.2c0,8.1-0.1,14.6-0.1,16.6c0,1.6,1.1,3.5,4.1,2.9
		c24-8,41.3-30.6,41.3-57.3C-14.3,635.2-41.4,608.2-74.7,608.2z"/>
	<path class="st8" d="M-112.2,694.9c-0.1,0.3-0.6,0.4-1,0.2s-0.7-0.6-0.5-0.9c0.1-0.3,0.6-0.4,1-0.2
		C-112.3,694.2-112.1,694.6-112.2,694.9L-112.2,694.9z"/>
	<path class="st8" d="M-109.8,697.6c-0.3,0.3-0.9,0.1-1.2-0.3c-0.4-0.4-0.5-1-0.2-1.3c0.3-0.3,0.8-0.1,1.2,0.3
		C-109.6,696.8-109.5,697.4-109.8,697.6L-109.8,697.6z"/>
	<path class="st8" d="M-107.4,701.1c-0.4,0.3-1,0-1.3-0.5c-0.4-0.5-0.4-1.2,0-1.4c0.4-0.3,1,0,1.3,0.5
		C-107,700.2-107,700.8-107.4,701.1L-107.4,701.1z"/>
	<path class="st8" d="M-104.1,704.5c-0.3,0.4-1,0.3-1.6-0.2c-0.5-0.5-0.7-1.2-0.3-1.5c0.3-0.4,1-0.3,1.6,0.2
		C-103.9,703.4-103.8,704.1-104.1,704.5L-104.1,704.5z"/>
	<path class="st8" d="M-99.6,706.4c-0.1,0.5-0.8,0.7-1.5,0.5s-1.1-0.8-1-1.2c0.1-0.5,0.8-0.7,1.5-0.5
		C-99.9,705.4-99.5,705.9-99.6,706.4L-99.6,706.4z"/>
	<path class="st8" d="M-94.7,706.8c0,0.5-0.6,0.9-1.3,0.9s-1.3-0.4-1.3-0.9s0.6-0.9,1.3-0.9S-94.7,706.3-94.7,706.8L-94.7,706.8z"/>
	<path class="st8" d="M-90.1,706c0.1,0.5-0.4,1-1.1,1.1c-0.7,0.1-1.3-0.2-1.4-0.7c-0.1-0.5,0.4-1,1.1-1.1
		C-90.8,705.2-90.2,705.5-90.1,706L-90.1,706z"/>
</g>
<g class="st0">
	<g class="st3">
		<line class="st4" x1="-200.4" y1="602.3" x2="-200.4" y2="602.8"/>
		<line class="st5" x1="-200.4" y1="604.8" x2="-200.4" y2="738.8"/>
		<line class="st4" x1="-200.4" y1="739.8" x2="-200.4" y2="740.3"/>
	</g>
</g>
<g class="st0">
	<path class="st6" d="M-292,754.3c-0.4-0.3-0.9-0.4-1.5-0.4c-0.2,0-0.5,0-0.7,0.1c-0.2,0-0.4,0.1-0.6,0.2c-0.2,0.1-0.3,0.3-0.4,0.5
		c-0.1,0.2-0.2,0.4-0.2,0.7c0,0.3,0.1,0.5,0.2,0.6c0.2,0.2,0.4,0.3,0.6,0.4c0.3,0.1,0.6,0.2,0.9,0.3c0.3,0.1,0.7,0.1,1,0.2
		c0.3,0.1,0.7,0.2,1,0.3c0.3,0.1,0.6,0.3,0.9,0.4c0.3,0.2,0.5,0.4,0.6,0.7c0.2,0.3,0.2,0.6,0.2,1.1s-0.1,0.8-0.3,1.2
		c-0.2,0.3-0.5,0.6-0.8,0.8c-0.3,0.2-0.7,0.4-1.1,0.4c-0.4,0-0.8,0.1-1.2,0.1c-0.5,0-0.9-0.1-1.4-0.2c-0.4-0.1-0.8-0.3-1.1-0.5
		c-0.3-0.2-0.6-0.6-0.8-0.9c-0.2-0.4-0.3-0.8-0.3-1.3h1.1c0,0.4,0.1,0.7,0.2,0.9c0.1,0.3,0.3,0.5,0.6,0.6c0.2,0.2,0.5,0.3,0.8,0.4
		c0.3,0.1,0.6,0.1,0.9,0.1c0.3,0,0.5,0,0.8-0.1c0.3,0,0.5-0.1,0.7-0.2c0.2-0.1,0.4-0.3,0.5-0.5c0.1-0.2,0.2-0.5,0.2-0.8
		c0-0.3-0.1-0.5-0.2-0.7c-0.2-0.2-0.4-0.3-0.6-0.5c-0.3-0.1-0.6-0.2-0.9-0.3c-0.3-0.1-0.7-0.1-1-0.2c-0.3-0.1-0.7-0.2-1-0.3
		c-0.3-0.1-0.6-0.2-0.9-0.4c-0.3-0.2-0.5-0.4-0.6-0.6c-0.2-0.3-0.2-0.6-0.2-1c0-0.4,0.1-0.8,0.3-1.1c0.2-0.3,0.4-0.6,0.7-0.8
		c0.3-0.2,0.6-0.4,1-0.5s0.8-0.2,1.1-0.2c0.4,0,0.8,0.1,1.2,0.2c0.4,0.1,0.7,0.3,1,0.5c0.3,0.2,0.5,0.5,0.7,0.8
		c0.2,0.3,0.3,0.7,0.3,1.2h-1.1C-291.4,755-291.7,754.5-292,754.3z"/>
	<path class="st6" d="M-287.8,755.5v0.9l0,0c0.5-0.7,1.1-1.1,2-1.1c0.4,0,0.7,0.1,1,0.2c0.3,0.2,0.5,0.4,0.7,0.8
		c0.2-0.3,0.5-0.6,0.8-0.8c0.3-0.2,0.7-0.3,1.1-0.3c0.3,0,0.6,0,0.8,0.1c0.3,0.1,0.5,0.2,0.6,0.3c0.2,0.1,0.3,0.3,0.4,0.6
		c0.1,0.2,0.1,0.5,0.1,0.8v4.5h-0.7v-4.1c0-0.2,0-0.4,0-0.5c0-0.2-0.1-0.3-0.2-0.4c-0.1-0.1-0.2-0.2-0.4-0.3c-0.2,0.1-0.4,0-0.6,0
		c-0.5,0-0.9,0.1-1.2,0.4c-0.3,0.3-0.4,0.7-0.4,1.2v3.9h-1v-4.1c0-0.2,0-0.4-0.1-0.6c0-0.2-0.1-0.3-0.2-0.4
		c-0.1-0.1-0.2-0.2-0.4-0.3c-0.1-0.1-0.3-0.1-0.6-0.1c-0.3,0-0.5,0.1-0.8,0.2c-0.2,0.1-0.4,0.3-0.5,0.4c-0.1,0.2-0.2,0.3-0.3,0.5
		c-0.1,0.2-0.1,0.3-0.1,0.5v3.9h-1v-6.2H-287.8z"/>
	<path class="st6" d="M-273.7,761.8c-0.3,0-0.5-0.1-0.6-0.2c-0.2-0.1-0.2-0.4-0.2-0.7c-0.3,0.3-0.6,0.6-1,0.7
		c-0.4,0.1-0.8,0.2-1.2,0.2c-0.3,0-0.5,0-0.8-0.1c-0.2-0.1-0.5-0.2-0.7-0.3c-0.2-0.1-0.3-0.3-0.4-0.5s-0.2-0.5-0.2-0.8
		c0-0.4,0.1-0.6,0.2-0.9c0.1-0.2,0.3-0.4,0.5-0.5c0.2-0.1,0.4-0.2,0.7-0.3c0.3-0.1,0.5-0.1,0.8-0.2c0.3-0.1,0.5-0.1,0.8-0.1
		c0.3,0,0.5-0.1,0.7-0.1c0.2-0.1,0.3-0.1,0.5-0.2c0.1-0.1,0.2-0.2,0.2-0.4c0-0.2,0-0.4-0.1-0.5s-0.2-0.2-0.3-0.3
		c-0.1-0.1-0.3-0.1-0.4-0.1c-0.2,0-0.3,0-0.5,0c-0.4,0-0.8,0.1-1.1,0.2c-0.3,0.2-0.4,0.5-0.5,0.9h-1c0-0.4,0.1-0.7,0.2-1
		s0.3-0.5,0.6-0.6c0.2-0.2,0.5-0.3,0.8-0.4c0.3-0.1,0.6-0.1,1-0.1c0.3,0,0.6,0,0.8,0.1c0.3,0,0.5,0.1,0.8,0.2
		c0.2,0.1,0.4,0.3,0.5,0.5s0.2,0.5,0.2,0.9v3.2c0,0.2,0,0.4,0,0.5c0,0.1,0.1,0.2,0.3,0.2c0.1,0,0.2,0,0.3-0.1v0.8
		C-273.2,761.7-273.4,761.8-273.7,761.8z M-275.2,758.7c-0.2,0-0.4,0.1-0.7,0.1c-0.2,0-0.5,0.1-0.7,0.1c-0.2,0-0.4,0.1-0.6,0.2
		c-0.2,0.1-0.3,0.2-0.5,0.3c-0.1,0.1-0.2,0.3-0.2,0.6c0,0.2,0,0.3,0.1,0.4c0.1,0.1,0.2,0.2,0.3,0.3c0.1,0.1,0.2,0.1,0.4,0.2
		c0.1,0,0.3,0,0.4,0c0.3,0,0.6,0,0.9-0.1c0.2-0.1,0.4-0.2,0.6-0.3c0.2-0.1,0.3-0.3,0.3-0.5c0.1-0.2,0.1-0.3,0.1-0.5v-1
		C-274.8,758.6-274.9,758.6-275.2,758.7z"/>
	<path class="st6" d="M-271,753.1v8.6h-1v-8.6H-271z"/>
	<path class="st6" d="M-268.3,753.1v8.6h-1v-8.6H-268.3z"/>
	<path class="st6" d="M-323.5,770.8v-0.9h1V769c0-0.5,0.1-0.9,0.4-1.1c0.3-0.3,0.7-0.4,1.3-0.4c0.1,0,0.2,0,0.3,0s0.2,0,0.3,0.1v0.9
		c-0.1,0-0.2-0.1-0.3-0.1s-0.2,0-0.3,0c-0.2,0-0.4,0-0.6,0.1c-0.1,0.1-0.2,0.3-0.2,0.6v0.9h1.2v0.9h-1.2v5.3h-1v-5.3L-323.5,770.8
		L-323.5,770.8z"/>
	<path class="st6" d="M-319.4,771.7c0.1-0.4,0.3-0.7,0.6-1c0.3-0.3,0.6-0.5,0.9-0.7c0.4-0.2,0.8-0.3,1.3-0.3s0.9,0.1,1.3,0.3
		c0.4,0.2,0.7,0.4,0.9,0.7c0.3,0.3,0.4,0.6,0.6,1c0.1,0.4,0.2,0.8,0.2,1.3s-0.1,0.9-0.2,1.3c-0.1,0.4-0.3,0.7-0.6,1
		c-0.3,0.3-0.6,0.5-0.9,0.7c-0.4,0.2-0.8,0.2-1.3,0.2s-0.9-0.1-1.3-0.2c-0.4-0.2-0.7-0.4-0.9-0.7c-0.3-0.3-0.4-0.6-0.6-1
		c-0.1-0.4-0.2-0.8-0.2-1.3S-319.6,772.1-319.4,771.7z M-318.4,774c0.1,0.3,0.2,0.5,0.4,0.7s0.4,0.3,0.6,0.4
		c0.2,0.1,0.5,0.2,0.8,0.2c0.3,0,0.5-0.1,0.8-0.2c0.2-0.1,0.4-0.3,0.6-0.4c0.2-0.2,0.3-0.4,0.4-0.7c0.1-0.3,0.1-0.6,0.1-1
		s0-0.7-0.1-1c-0.1-0.3-0.2-0.5-0.4-0.7c-0.2-0.2-0.4-0.4-0.6-0.5c-0.2-0.1-0.5-0.2-0.8-0.2c-0.3,0-0.5,0.1-0.8,0.2
		c-0.2,0.1-0.4,0.3-0.6,0.5s-0.3,0.4-0.4,0.7c-0.1,0.3-0.1,0.6-0.1,1C-318.5,773.3-318.5,773.7-318.4,774z"/>
	<path class="st6" d="M-311.5,769.9v1.3l0,0c0.2-0.5,0.6-0.9,0.9-1.1c0.4-0.2,0.8-0.4,1.4-0.3v1.1c-0.4,0-0.8,0.1-1,0.2
		c-0.3,0.1-0.5,0.3-0.7,0.5c-0.2,0.2-0.3,0.5-0.4,0.8c-0.1,0.3-0.1,0.7-0.1,1.1v2.8h-1v-6.2h0.9V769.9z"/>
	<path class="st6" d="M-302.6,776.1V770h-2.2v-0.8c0.3,0,0.6,0,0.8-0.1c0.3,0,0.5-0.1,0.7-0.2c0.2-0.1,0.4-0.3,0.6-0.5
		c0.2-0.2,0.3-0.5,0.3-0.8h0.8v8.5H-302.6z"/>
	<path class="st6" d="M-294.6,768.8c-0.2-0.2-0.6-0.3-1-0.3s-0.8,0.1-1,0.3c-0.3,0.2-0.5,0.5-0.6,0.8c-0.1,0.3-0.3,0.7-0.3,1.1
		c-0.1,0.4-0.1,0.7-0.1,1.1l0,0c0.2-0.4,0.5-0.7,0.9-0.9c0.4-0.2,0.8-0.3,1.2-0.3s0.8,0.1,1.1,0.2c0.3,0.1,0.6,0.3,0.8,0.6
		c0.2,0.2,0.4,0.5,0.5,0.9c0.1,0.3,0.2,0.7,0.2,1.1c0,0.3,0,0.6-0.1,1c-0.1,0.3-0.3,0.6-0.5,0.9s-0.5,0.5-0.9,0.7s-0.8,0.3-1.4,0.3
		c-0.6,0-1.1-0.1-1.5-0.4c-0.4-0.3-0.7-0.6-0.9-1c-0.2-0.4-0.3-0.8-0.4-1.3s-0.1-0.9-0.1-1.4c0-0.6,0-1.1,0.1-1.7
		c0.1-0.5,0.3-1,0.5-1.5c0.2-0.4,0.6-0.8,1-1c0.4-0.3,0.9-0.4,1.5-0.4c0.7,0,1.3,0.2,1.7,0.6s0.7,0.9,0.7,1.6h-1
		C-294.2,769.3-294.4,769-294.6,768.8z M-296.5,771.6c-0.2,0.1-0.4,0.2-0.6,0.4c-0.2,0.2-0.3,0.4-0.3,0.6c-0.1,0.2-0.1,0.5-0.1,0.8
		c0,0.3,0,0.5,0.1,0.7c0.1,0.2,0.2,0.4,0.3,0.6s0.3,0.3,0.6,0.4c0.2,0.1,0.5,0.2,0.8,0.2c0.3,0,0.5,0,0.7-0.2
		c0.2-0.1,0.4-0.2,0.5-0.4s0.3-0.4,0.3-0.6c0.1-0.2,0.1-0.5,0.1-0.7c0-0.3,0-0.5-0.1-0.8c-0.1-0.2-0.2-0.4-0.3-0.6s-0.3-0.3-0.5-0.4
		c-0.2-0.1-0.5-0.2-0.8-0.2C-296,771.5-296.3,771.5-296.5,771.6z"/>
	<path class="st6" d="M-290.7,769.9v0.8l0,0c0.2-0.3,0.4-0.6,0.8-0.8c0.4-0.2,0.8-0.2,1.2-0.2c0.5,0,0.9,0.1,1.3,0.3
		c0.4,0.2,0.7,0.4,0.9,0.7s0.4,0.6,0.5,1s0.2,0.8,0.2,1.2s-0.1,0.9-0.2,1.2c-0.1,0.4-0.3,0.7-0.5,1s-0.5,0.5-0.9,0.7
		s-0.8,0.3-1.2,0.3c-0.2,0-0.3,0-0.5,0c-0.2,0-0.4-0.1-0.6-0.2c-0.2-0.1-0.4-0.2-0.5-0.3c-0.2-0.1-0.3-0.3-0.4-0.5l0,0v3.2h-1v-8.6
		h0.9V769.9z M-287,772.1c-0.1-0.3-0.2-0.5-0.3-0.7c-0.2-0.2-0.4-0.4-0.6-0.5c-0.2-0.1-0.5-0.2-0.9-0.2c-0.3,0-0.6,0.1-0.9,0.2
		c-0.2,0.1-0.4,0.3-0.6,0.5c-0.2,0.2-0.3,0.5-0.3,0.8c-0.1,0.3-0.1,0.6-0.1,0.9s0,0.6,0.1,0.9c0.1,0.3,0.2,0.5,0.3,0.8
		c0.2,0.2,0.4,0.4,0.6,0.5c0.2,0.1,0.5,0.2,0.9,0.2c0.4,0,0.6-0.1,0.9-0.2c0.2-0.1,0.4-0.3,0.6-0.5c0.1-0.2,0.2-0.5,0.3-0.8
		c0.1-0.3,0.1-0.6,0.1-0.9C-286.9,772.6-286.9,772.3-287,772.1z"/>
	<path class="st6" d="M-285.1,769.9h1.3l1.5,2.2l1.5-2.2h1.2l-2.1,2.9l2.4,3.3h-1.3l-1.7-2.6l-1.7,2.6h-1.3l2.3-3.3L-285.1,769.9z"
		/>
	<path class="st6" d="M-275.1,772.2v1h-3.5v-1H-275.1z"/>
	<path class="st6" d="M-271.2,776.1V770h-2.2v-0.8c0.3,0,0.6,0,0.8-0.1c0.3,0,0.5-0.1,0.7-0.2c0.2-0.1,0.4-0.3,0.6-0.5
		c0.2-0.2,0.3-0.5,0.3-0.8h0.8v8.5H-271.2z"/>
	<path class="st6" d="M-267.2,769.4c0.1-0.4,0.3-0.7,0.5-1c0.2-0.3,0.5-0.5,0.9-0.6c0.4-0.2,0.8-0.2,1.2-0.2s0.7,0.1,1,0.2
		c0.3,0.1,0.6,0.3,0.8,0.5c0.2,0.2,0.4,0.5,0.6,0.8c0.1,0.3,0.2,0.7,0.2,1.1s-0.1,0.7-0.2,1c-0.1,0.3-0.3,0.5-0.5,0.8
		c-0.2,0.2-0.4,0.4-0.7,0.6c-0.2,0.2-0.5,0.4-0.8,0.5c-0.3,0.2-0.5,0.3-0.8,0.5c-0.3,0.2-0.5,0.3-0.7,0.5c-0.2,0.2-0.4,0.4-0.6,0.6
		c-0.2,0.2-0.3,0.4-0.3,0.7h4.6v0.9h-5.6c0-0.5,0.1-0.9,0.3-1.3c0.1-0.4,0.3-0.7,0.5-0.9c0.2-0.3,0.5-0.5,0.7-0.7
		c0.3-0.2,0.6-0.4,0.9-0.6c0.4-0.2,0.7-0.4,0.9-0.6c0.3-0.2,0.5-0.4,0.7-0.6c0.2-0.2,0.3-0.4,0.4-0.6c0.1-0.2,0.1-0.5,0.1-0.8
		c0-0.2,0-0.4-0.1-0.6c-0.1-0.2-0.2-0.3-0.4-0.5c-0.1-0.1-0.3-0.2-0.5-0.3c-0.2-0.1-0.4-0.1-0.6-0.1c-0.3,0-0.6,0.1-0.8,0.2
		s-0.4,0.3-0.5,0.5s-0.2,0.4-0.3,0.7c-0.1,0.3-0.1,0.5-0.1,0.8h-1C-267.3,770.1-267.3,769.7-267.2,769.4z"/>
	<path class="st6" d="M-260.6,770.9c0-0.3,0.1-0.7,0.1-1c0.1-0.3,0.2-0.6,0.3-0.9c0.1-0.3,0.3-0.5,0.5-0.8c0.2-0.2,0.5-0.4,0.8-0.5
		c0.3-0.1,0.7-0.2,1.1-0.2c0.4,0,0.8,0.1,1.1,0.2c0.3,0.1,0.6,0.3,0.8,0.5c0.2,0.2,0.4,0.5,0.5,0.8c0.1,0.3,0.2,0.6,0.3,0.9
		c0.1,0.3,0.1,0.6,0.1,1c0,0.3,0,0.7,0,1s0,0.6,0,1c0,0.3-0.1,0.7-0.1,1c-0.1,0.3-0.2,0.6-0.3,0.9c-0.1,0.3-0.3,0.5-0.5,0.8
		c-0.2,0.2-0.5,0.4-0.8,0.5c-0.3,0.1-0.7,0.2-1.1,0.2c-0.4,0-0.8-0.1-1.1-0.2c-0.3-0.1-0.6-0.3-0.8-0.5c-0.2-0.2-0.4-0.5-0.5-0.8
		c-0.1-0.3-0.2-0.6-0.3-0.9s-0.1-0.6-0.1-1s0-0.7,0-1S-260.6,771.3-260.6,770.9z M-259.5,773c0,0.4,0.1,0.8,0.2,1.1
		c0.1,0.3,0.3,0.6,0.5,0.9c0.2,0.2,0.6,0.4,1,0.4c0.4,0,0.8-0.1,1-0.4c0.2-0.2,0.4-0.5,0.5-0.9c0.1-0.3,0.2-0.7,0.2-1.1s0-0.8,0-1.1
		c0-0.2,0-0.4,0-0.7c0-0.3,0-0.5-0.1-0.8c0-0.3-0.1-0.5-0.2-0.7c-0.1-0.2-0.2-0.5-0.3-0.6c-0.1-0.2-0.3-0.3-0.5-0.4
		c-0.2-0.1-0.4-0.2-0.7-0.2c-0.3,0-0.5,0.1-0.7,0.2c-0.2,0.1-0.4,0.3-0.5,0.4c-0.1,0.2-0.2,0.4-0.3,0.6c-0.1,0.2-0.1,0.5-0.2,0.7
		c0,0.3-0.1,0.5-0.1,0.8c0,0.3,0,0.5,0,0.7C-259.6,772.2-259.6,772.6-259.5,773z"/>
	<path class="st6" d="M-252.7,769.9v0.8l0,0c0.2-0.3,0.4-0.6,0.8-0.8c0.4-0.2,0.8-0.2,1.2-0.2c0.5,0,0.9,0.1,1.3,0.3
		c0.4,0.2,0.7,0.4,0.9,0.7s0.4,0.6,0.5,1s0.2,0.8,0.2,1.2s-0.1,0.9-0.2,1.2c-0.1,0.4-0.3,0.7-0.5,1s-0.5,0.5-0.9,0.7
		c-0.4,0.2-0.8,0.3-1.2,0.3c-0.2,0-0.3,0-0.5,0c-0.2,0-0.4-0.1-0.6-0.2s-0.4-0.2-0.5-0.3c-0.2-0.1-0.3-0.3-0.4-0.5l0,0v3.2h-1v-8.6
		h0.9V769.9z M-249,772.1c-0.1-0.3-0.2-0.5-0.3-0.7c-0.2-0.2-0.4-0.4-0.6-0.5c-0.2-0.1-0.5-0.2-0.9-0.2c-0.3,0-0.6,0.1-0.9,0.2
		c-0.2,0.1-0.4,0.3-0.6,0.5c-0.2,0.2-0.3,0.5-0.3,0.8c-0.1,0.3-0.1,0.6-0.1,0.9s0,0.6,0.1,0.9c0.1,0.3,0.2,0.5,0.3,0.8
		c0.2,0.2,0.4,0.4,0.6,0.5c0.2,0.1,0.5,0.2,0.9,0.2c0.4,0,0.6-0.1,0.9-0.2c0.2-0.1,0.4-0.3,0.6-0.5c0.1-0.2,0.2-0.5,0.3-0.8
		c0.1-0.3,0.1-0.6,0.1-0.9C-248.9,772.6-248.9,772.3-249,772.1z"/>
	<path class="st6" d="M-247.1,769.9h1.3l1.5,2.2l1.5-2.2h1.2l-2.1,2.9l2.4,3.3h-1.3l-1.7-2.6l-1.7,2.6h-1.2l2.3-3.3L-247.1,769.9z"
		/>
</g>
<g class="st0">
	<path class="st6" d="M-89.7,753.1v7.6h4.5v1h-5.7v-8.6H-89.7z"/>
	<path class="st6" d="M-79.6,761.8c-0.3,0-0.5-0.1-0.6-0.2c-0.2-0.1-0.2-0.4-0.2-0.7c-0.3,0.3-0.6,0.6-1,0.7
		c-0.4,0.1-0.8,0.2-1.2,0.2c-0.3,0-0.5,0-0.8-0.1c-0.2-0.1-0.5-0.2-0.7-0.3s-0.3-0.3-0.4-0.5c-0.1-0.2-0.2-0.5-0.2-0.8
		c0-0.4,0.1-0.6,0.2-0.9c0.1-0.2,0.3-0.4,0.5-0.5c0.2-0.1,0.4-0.2,0.7-0.3s0.5-0.1,0.8-0.2c0.3-0.1,0.5-0.1,0.8-0.1s0.5-0.1,0.7-0.1
		c0.2-0.1,0.3-0.1,0.5-0.2c0.1-0.1,0.2-0.2,0.2-0.4c0-0.2,0-0.4-0.1-0.5s-0.2-0.2-0.3-0.3c-0.1-0.1-0.3-0.1-0.4-0.1
		c-0.2,0-0.3,0-0.5,0c-0.4,0-0.8,0.1-1.1,0.2c-0.3,0.2-0.4,0.5-0.5,0.9h-1c0-0.4,0.1-0.7,0.2-1c0.1-0.3,0.3-0.5,0.6-0.6
		c0.2-0.2,0.5-0.3,0.8-0.4s0.6-0.1,1-0.1c0.3,0,0.6,0,0.8,0.1c0.3,0,0.5,0.1,0.8,0.2c0.2,0.1,0.4,0.3,0.5,0.5s0.2,0.5,0.2,0.9v3.2
		c0,0.2,0,0.4,0,0.5c0,0.1,0.1,0.2,0.3,0.2c0.1,0,0.2,0,0.3-0.1v0.8C-79,761.7-79.2,761.8-79.6,761.8z M-81,758.7
		c-0.2,0-0.4,0.1-0.7,0.1c-0.2,0-0.5,0.1-0.7,0.1s-0.4,0.1-0.6,0.2c-0.2,0.1-0.3,0.2-0.4,0.3c-0.1,0.1-0.2,0.4-0.2,0.6
		c0,0.2,0,0.3,0.1,0.4s0.2,0.2,0.3,0.3c0.1,0.1,0.2,0.1,0.4,0.2c0.1,0,0.3,0,0.4,0c0.3,0,0.6,0,0.9-0.1c0.2-0.1,0.4-0.2,0.6-0.3
		c0.2-0.1,0.3-0.3,0.3-0.5c0.1-0.2,0.1-0.3,0.1-0.5v-1C-80.6,758.6-80.8,758.6-81,758.7z"/>
	<path class="st6" d="M-77,755.5v1.3l0,0c0.2-0.5,0.6-0.9,0.9-1.1c0.4-0.2,0.8-0.4,1.4-0.3v1.1c-0.4,0-0.8,0.1-1,0.2
		c-0.3,0.1-0.5,0.3-0.7,0.5s-0.3,0.5-0.4,0.8c-0.1,0.3-0.1,0.7-0.1,1.1v2.8h-1v-6.2h0.9V755.5z"/>
	<path class="st6" d="M-69.6,763.4c-0.5,0.5-1.2,0.8-2.2,0.8c-0.3,0-0.6,0-0.9-0.1c-0.3-0.1-0.6-0.2-0.8-0.3
		c-0.2-0.1-0.4-0.3-0.6-0.6c-0.2-0.2-0.2-0.5-0.3-0.9h1c0,0.2,0.1,0.3,0.2,0.5c0.1,0.1,0.2,0.2,0.4,0.3c0.2,0.1,0.3,0.1,0.5,0.2
		c0.2,0,0.4,0.1,0.5,0.1c0.3,0,0.6-0.1,0.9-0.2c0.2-0.1,0.4-0.3,0.6-0.5c0.2-0.2,0.3-0.4,0.3-0.7c0.1-0.3,0.1-0.6,0.1-0.9v-0.4l0,0
		c-0.2,0.4-0.4,0.7-0.8,0.8c-0.4,0.2-0.7,0.3-1.1,0.3c-0.5,0-0.9-0.1-1.2-0.3c-0.3-0.2-0.6-0.4-0.9-0.7c-0.2-0.3-0.4-0.6-0.5-1
		s-0.2-0.8-0.2-1.2s0-0.7,0.1-1.1c0.1-0.4,0.3-0.7,0.5-1.1c0.2-0.3,0.5-0.6,0.9-0.8c0.4-0.2,0.8-0.3,1.4-0.3c0.4,0,0.8,0.1,1.1,0.3
		c0.3,0.2,0.6,0.4,0.8,0.8l0,0v-0.9h1v5.7C-68.9,762.2-69.1,762.9-69.6,763.4z M-70.9,760.6c0.2-0.1,0.4-0.3,0.6-0.6
		c0.1-0.2,0.3-0.5,0.3-0.8c0.1-0.3,0.1-0.6,0.1-0.9c0-0.3,0-0.5-0.1-0.8c-0.1-0.3-0.2-0.5-0.3-0.7c-0.1-0.2-0.3-0.4-0.5-0.5
		c-0.2-0.1-0.5-0.2-0.8-0.2s-0.6,0.1-0.8,0.2c-0.2,0.1-0.4,0.3-0.6,0.5c-0.1,0.2-0.3,0.4-0.3,0.7c-0.1,0.3-0.1,0.6-0.1,0.9
		s0,0.6,0.1,0.8c0.1,0.3,0.2,0.5,0.3,0.8c0.1,0.2,0.3,0.4,0.5,0.6c0.2,0.1,0.5,0.2,0.8,0.2S-71.1,760.8-70.9,760.6z"/>
	<path class="st6" d="M-62.9,761.3c-0.5,0.4-1,0.5-1.8,0.5c-0.5,0-0.9-0.1-1.3-0.2c-0.4-0.2-0.7-0.4-0.9-0.7c-0.2-0.3-0.4-0.6-0.6-1
		c-0.1-0.4-0.2-0.8-0.2-1.3s0.1-0.9,0.2-1.3c0.1-0.4,0.3-0.7,0.6-1c0.3-0.3,0.6-0.5,0.9-0.7c0.4-0.2,0.7-0.2,1.2-0.2
		c0.6,0,1,0.1,1.4,0.3c0.4,0.2,0.7,0.5,0.9,0.9s0.4,0.7,0.5,1.2c0.1,0.4,0.1,0.8,0.1,1.2h-4.6c0,0.3,0,0.5,0.1,0.8
		c0.1,0.2,0.2,0.5,0.3,0.6c0.2,0.2,0.4,0.3,0.6,0.5c0.2,0.1,0.5,0.2,0.9,0.2s0.8-0.1,1.1-0.3c0.3-0.2,0.5-0.5,0.5-0.9h1
		C-62.2,760.4-62.5,760.9-62.9,761.3z M-63.2,757.3c-0.1-0.2-0.2-0.4-0.4-0.6s-0.3-0.3-0.6-0.4c-0.3-0.1-0.4-0.1-0.7-0.1
		s-0.5,0-0.7,0.1c-0.2,0.1-0.4,0.2-0.5,0.4c-0.2,0.2-0.3,0.3-0.4,0.6c-0.1,0.2-0.1,0.4-0.2,0.7h3.6C-63,757.7-63.1,757.5-63.2,757.3
		z"/>
	<path class="st6" d="M-60,755.5v1.3l0,0c0.2-0.5,0.6-0.9,0.9-1.1c0.4-0.2,0.8-0.4,1.4-0.3v1.1c-0.4,0-0.8,0.1-1,0.2
		c-0.3,0.1-0.5,0.3-0.7,0.5s-0.3,0.5-0.4,0.8c-0.1,0.3-0.1,0.7-0.1,1.1v2.8h-1v-6.2h0.9V755.5z"/>
	<path class="st6" d="M-107.1,770.8v-0.9h1V769c0-0.5,0.1-0.9,0.4-1.1c0.3-0.3,0.7-0.4,1.3-0.4c0.1,0,0.2,0,0.3,0s0.2,0,0.3,0.1v0.9
		c-0.1,0-0.2-0.1-0.3-0.1s-0.2,0-0.3,0c-0.2,0-0.4,0-0.6,0.1c-0.1,0.1-0.2,0.3-0.2,0.6v0.9h1.2v0.9h-1v5.3h-1v-5.3L-107.1,770.8
		L-107.1,770.8z"/>
	<path class="st6" d="M-103,771.7c0.1-0.4,0.3-0.7,0.6-1s0.6-0.5,0.9-0.7c0.4-0.2,0.8-0.3,1.3-0.3s0.9,0.1,1.3,0.3
		c0.4,0.2,0.7,0.4,0.9,0.7c0.3,0.3,0.4,0.6,0.6,1c0.1,0.4,0.2,0.8,0.2,1.3s-0.1,0.9-0.2,1.3c-0.1,0.4-0.3,0.7-0.6,1
		s-0.6,0.5-0.9,0.7c-0.4,0.2-0.8,0.2-1.3,0.2s-0.9-0.1-1.3-0.2c-0.4-0.2-0.7-0.4-0.9-0.7c-0.3-0.3-0.4-0.6-0.6-1
		c-0.1-0.4-0.2-0.8-0.2-1.3S-103.2,772.1-103,771.7z M-102,774c0.1,0.3,0.2,0.5,0.4,0.7s0.4,0.3,0.6,0.5c0.2,0.1,0.5,0.2,0.8,0.2
		s0.5-0.1,0.8-0.2c0.2-0.1,0.4-0.3,0.6-0.5c0.2-0.2,0.3-0.4,0.4-0.7c0.1-0.3,0.1-0.6,0.1-1s0-0.7-0.1-1s-0.2-0.5-0.4-0.7
		s-0.4-0.4-0.6-0.5c-0.2-0.1-0.5-0.2-0.8-0.2s-0.5,0.1-0.8,0.2c-0.2,0.1-0.4,0.3-0.6,0.5c-0.2,0.2-0.3,0.4-0.4,0.7
		c-0.1,0.3-0.2,0.6-0.2,1C-102.1,773.3-102.1,773.7-102,774z"/>
	<path class="st6" d="M-95.1,769.9v1.3l0,0c0.2-0.5,0.6-0.9,0.9-1.1c0.4-0.2,0.8-0.4,1.4-0.3v1.1c-0.4,0-0.8,0.1-1,0.2
		c-0.3,0.1-0.5,0.3-0.7,0.5s-0.3,0.5-0.4,0.8c-0.1,0.3-0.1,0.7-0.1,1.1v2.8h-1v-6.2h0.9V769.9z"/>
	<path class="st6" d="M-86.2,776.1V770h-2.2v-0.8c0.3,0,0.6,0,0.8-0.1c0.3,0,0.5-0.1,0.7-0.2c0.2-0.1,0.4-0.3,0.6-0.5
		c0.2-0.2,0.3-0.5,0.3-0.8h0.8v8.5H-86.2z"/>
	<path class="st6" d="M-82.1,769.4c0.1-0.4,0.3-0.7,0.5-1s0.5-0.5,0.9-0.6c0.4-0.2,0.8-0.2,1.2-0.2s0.7,0.1,1,0.2
		c0.3,0.1,0.6,0.3,0.8,0.5c0.2,0.2,0.4,0.5,0.6,0.8c0.1,0.3,0.2,0.7,0.2,1.1s-0.1,0.7-0.2,1c-0.1,0.3-0.3,0.5-0.5,0.8
		c-0.2,0.2-0.4,0.4-0.7,0.6c-0.2,0.2-0.5,0.4-0.8,0.5c-0.3,0.2-0.5,0.3-0.8,0.5c-0.3,0.2-0.5,0.3-0.7,0.5c-0.2,0.2-0.4,0.4-0.6,0.6
		c-0.2,0.2-0.3,0.4-0.3,0.7h4.4v0.9h-5.6c0-0.5,0.1-0.9,0.3-1.3c0.1-0.4,0.3-0.7,0.5-0.9c0.2-0.3,0.5-0.5,0.7-0.7
		c0.3-0.2,0.6-0.4,0.9-0.6c0.4-0.2,0.7-0.4,0.9-0.6c0.3-0.2,0.5-0.4,0.7-0.6c0.2-0.2,0.3-0.4,0.4-0.6c0.1-0.2,0.1-0.5,0.1-0.8
		c0-0.2,0-0.4-0.1-0.6c-0.1-0.2-0.2-0.3-0.4-0.5c-0.1-0.1-0.3-0.2-0.5-0.3c-0.2-0.1-0.4-0.1-0.6-0.1c-0.3,0-0.6,0.1-0.8,0.2
		s-0.4,0.3-0.5,0.5s-0.2,0.4-0.3,0.7s-0.1,0.5-0.1,0.8h-1C-82.3,770.1-82.2,769.7-82.1,769.4z"/>
	<path class="st6" d="M-75.6,770.9c0-0.3,0.1-0.7,0.1-1c0.1-0.3,0.2-0.6,0.3-0.9c0.1-0.3,0.3-0.5,0.5-0.8c0.2-0.2,0.5-0.4,0.8-0.5
		c0.3-0.1,0.7-0.2,1.1-0.2c0.4,0,0.8,0.1,1.1,0.2c0.3,0.1,0.6,0.3,0.8,0.5c0.2,0.2,0.4,0.5,0.5,0.8c0.1,0.3,0.2,0.6,0.3,0.9
		s0.1,0.6,0.1,1c0,0.3,0,0.7,0,1s0,0.6,0,1c0,0.3-0.1,0.7-0.1,1c-0.1,0.3-0.2,0.6-0.3,0.9c-0.1,0.3-0.3,0.5-0.5,0.8
		c-0.2,0.2-0.5,0.4-0.8,0.5c-0.3,0.1-0.7,0.2-1.1,0.2c-0.4,0-0.8-0.1-1.1-0.2c-0.3-0.1-0.6-0.3-0.8-0.5c-0.2-0.2-0.4-0.5-0.5-0.8
		c-0.1-0.3-0.2-0.6-0.3-0.9s-0.1-0.6-0.1-1c0-0.3,0-0.7,0-1C-75.6,771.6-75.6,771.3-75.6,770.9z M-74.5,772.9c0,0.4,0.1,0.8,0.2,1.1
		c0.1,0.3,0.3,0.6,0.5,0.9c0.2,0.2,0.6,0.4,1,0.4s0.8-0.1,1-0.4c0.2-0.2,0.4-0.5,0.5-0.9c0.1-0.3,0.2-0.7,0.2-1.1s0-0.8,0-1.1
		c0-0.2,0-0.4,0-0.7c0-0.3,0-0.5-0.1-0.8c0-0.3-0.1-0.5-0.2-0.7c-0.1-0.2-0.2-0.4-0.3-0.6s-0.3-0.3-0.5-0.4
		c-0.2-0.1-0.4-0.2-0.7-0.2s-0.5,0.1-0.7,0.2c-0.2,0.1-0.4,0.3-0.5,0.4c-0.1,0.2-0.2,0.4-0.3,0.6c-0.1,0.2-0.1,0.5-0.2,0.7
		c0,0.3-0.1,0.5-0.1,0.8c0,0.3,0,0.5,0,0.7C-74.5,772.2-74.5,772.6-74.5,772.9z"/>
	<path class="st6" d="M-67.6,769.9v0.8l0,0c0.2-0.3,0.4-0.6,0.8-0.8c0.4-0.2,0.8-0.2,1.2-0.2c0.5,0,0.9,0.1,1.3,0.3
		c0.4,0.2,0.7,0.4,0.9,0.7s0.4,0.6,0.5,1s0.2,0.8,0.2,1.2s-0.1,0.9-0.2,1.2c-0.1,0.4-0.3,0.7-0.5,1s-0.5,0.5-0.9,0.7
		s-0.8,0.3-1.2,0.3c-0.2,0-0.3,0-0.5,0s-0.4-0.1-0.6-0.2c-0.2-0.1-0.4-0.2-0.5-0.3c-0.2-0.1-0.3-0.3-0.4-0.5l0,0v3.2h-1v-8.6h0.9
		V769.9z M-63.9,772.1c-0.1-0.3-0.2-0.5-0.3-0.7c-0.2-0.2-0.4-0.4-0.6-0.5c-0.2-0.1-0.5-0.2-0.9-0.2c-0.3,0-0.6,0.1-0.9,0.2
		c-0.2,0.1-0.4,0.3-0.6,0.5c-0.2,0.2-0.3,0.5-0.3,0.8c-0.1,0.3-0.1,0.6-0.1,0.9s0,0.6,0.1,0.9c0.1,0.3,0.2,0.5,0.3,0.8
		c0.2,0.2,0.4,0.4,0.6,0.5c0.2,0.1,0.5,0.2,0.9,0.2s0.6-0.1,0.9-0.2c0.2-0.1,0.4-0.3,0.6-0.5c0.1-0.2,0.2-0.5,0.3-0.8
		c0.1-0.3,0.1-0.6,0.1-0.9C-63.8,772.6-63.9,772.3-63.9,772.1z"/>
	<path class="st6" d="M-62,769.9h1.3l1.5,2.2l1.5-2.2h1.2l-2.1,2.9l2.4,3.3h-1.3l-1.7-2.6l-1.7,2.6h-1.2l2.3-3.3L-62,769.9z"/>
	<path class="st6" d="M-46.1,772.6v0.8h-2.6v2.6h-0.8v-2.6h-2.6v-0.8h2.6V770h0.8v2.6H-46.1z"/>
</g>
</svg>
